<mxfile host="app.diagrams.net" agent="Mozilla/5.0 (Windows NT 10.0; Win64; x64) AppleWebKit/537.36 (KHTML, like Gecko) Chrome/136.0.0.0 Safari/537.36" version="25.0.3">
  <diagram name="PÃ¡gina-1" id="zaYgZBwzGOciJIG5GPPy">
    <mxGraphModel dx="1257" dy="2257" grid="1" gridSize="10" guides="1" tooltips="1" connect="1" arrows="1" fold="1" page="1" pageScale="1" pageWidth="1200" pageHeight="1600" math="0" shadow="0">
      <root>
        <mxCell id="0" />
        <mxCell id="1" parent="0" />
        <mxCell id="ZKJLrtz3e6IUy4FLzh70-6" value="&lt;p style=&quot;margin:0px;margin-top:4px;text-align:center;&quot;&gt;&lt;i&gt;&amp;lt;&amp;lt;E&lt;/i&gt;&lt;i style=&quot;background-color: initial;&quot;&gt;ntity&amp;gt;&amp;gt;&lt;/i&gt;&lt;/p&gt;&lt;p style=&quot;margin:0px;margin-top:4px;text-align:center;&quot;&gt;&lt;b&gt;Claim&lt;/b&gt;&lt;/p&gt;&lt;hr size=&quot;1&quot; style=&quot;border-style:solid;&quot;&gt;&lt;p style=&quot;margin:0px;margin-left:4px;&quot;&gt;&lt;span style=&quot;font-family: sans-serif; font-size: 14px; white-space: pre; background-color: initial;&quot;&gt;+ registrationMoment: Date {Mandatory, ValidMoment(past = true), Automapped}&lt;/span&gt;&lt;/p&gt;&lt;p style=&quot;margin:0px;margin-left:4px;&quot;&gt;&lt;span style=&quot;font-family: sans-serif; font-size: 14px; white-space: pre;&quot;&gt;+ email: String {Mandatory, ValidEmail, Automapped}&lt;/span&gt;&lt;/p&gt;&lt;p style=&quot;margin:0px;margin-left:4px;&quot;&gt;&lt;span style=&quot;font-family: sans-serif; font-size: 14px; white-space: pre;&quot;&gt;+ description: String {Mandatory, &lt;/span&gt;&lt;span style=&quot;background-color: initial; font-size: 14px; white-space: pre;&quot;&gt;&lt;font face=&quot;sans-serif&quot;&gt;ValidString(max = 255)&lt;/font&gt;&lt;/span&gt;&lt;span style=&quot;font-family: sans-serif; font-size: 14px; white-space: pre; background-color: initial;&quot;&gt;,  Automapped}&lt;/span&gt;&lt;/p&gt;&lt;p style=&quot;margin:0px;margin-left:4px;&quot;&gt;&lt;span style=&quot;font-family: sans-serif; font-size: 14px; white-space: pre;&quot;&gt;+ types: ClaimTypes {Mandatory, Valid, Automapped}&lt;/span&gt;&lt;span style=&quot;font-family: sans-serif; font-size: 14px; white-space: pre; background-color: initial;&quot;&gt;&lt;/span&gt;&lt;/p&gt;&lt;hr size=&quot;1&quot; style=&quot;border-style:solid;&quot;&gt;&lt;p style=&quot;margin:0px;margin-left:4px;&quot;&gt;&lt;span style=&quot;font-family: sans-serif; font-size: 14px; white-space: pre;&quot;&gt;\+ status(): claimStatus&lt;/span&gt;&lt;/p&gt;" style="verticalAlign=top;align=left;overflow=fill;html=1;whiteSpace=wrap;" vertex="1" parent="1">
          <mxGeometry x="410" y="190" width="680" height="150" as="geometry" />
        </mxCell>
        <mxCell id="ZKJLrtz3e6IUy4FLzh70-7" value="&lt;p style=&quot;margin:0px;margin-top:4px;text-align:center;&quot;&gt;&lt;i&gt;&amp;lt;&amp;lt;Entity&amp;gt;&amp;gt;&lt;/i&gt;&lt;br&gt;&lt;b&gt;TrackingLog&lt;/b&gt;&lt;/p&gt;&lt;hr size=&quot;1&quot; style=&quot;border-style:solid;&quot;&gt;&lt;p style=&quot;margin:0px;margin-left:4px;&quot;&gt;&lt;span style=&quot;font-family: sans-serif; font-size: 14px; white-space: pre; background-color: initial;&quot;&gt;+ lastUpdateMoment: Date {Mandatory, ValidMoment(past = true), Automapped}&lt;/span&gt;&lt;/p&gt;&lt;p style=&quot;margin:0px;margin-left:4px;&quot;&gt;&lt;span style=&quot;font-family: sans-serif; font-size: 14px; white-space: pre; background-color: initial;&quot;&gt;+ step: String {Mandatory, &lt;/span&gt;&lt;span style=&quot;background-color: initial; font-size: 14px; white-space: pre;&quot;&gt;&lt;font face=&quot;sans-serif&quot;&gt;ValidString(max = 50)&lt;/font&gt;&lt;/span&gt;&lt;span style=&quot;background-color: initial; font-family: sans-serif; font-size: 14px; white-space: pre;&quot;&gt;, Automapped}&lt;/span&gt;&lt;/p&gt;&lt;p style=&quot;margin:0px;margin-left:4px;&quot;&gt;&lt;font face=&quot;sans-serif&quot;&gt;&lt;span style=&quot;font-size: 14px; white-space: pre;&quot;&gt;+ resolutionPercentage: Double {Mandatory, &lt;/span&gt;&lt;/font&gt;&lt;span style=&quot;background-color: initial; font-size: 14px; white-space: pre;&quot;&gt;&lt;font face=&quot;sans-serif&quot;&gt;ValidNumber(min = 0, max = 100)&lt;/font&gt;&lt;/span&gt;&lt;span style=&quot;font-size: 14px; white-space: pre; font-family: sans-serif; background-color: initial;&quot;&gt;, Automapped}&lt;/span&gt;&lt;/p&gt;&lt;p style=&quot;margin:0px;margin-left:4px;&quot;&gt;&lt;font face=&quot;sans-serif&quot;&gt;&lt;span style=&quot;font-size: 14px; white-space: pre;&quot;&gt;+ status: ClaimStatus {Mandatory, Valid, Automapped}&lt;/span&gt;&lt;/font&gt;&lt;/p&gt;&lt;p style=&quot;margin:0px;margin-left:4px;&quot;&gt;&lt;span style=&quot;font-family: sans-serif; font-size: 14px; white-space: pre;&quot;&gt;+ resolution: String {Optional, ValidString(max=255), Automapped}&lt;/span&gt;&lt;font face=&quot;sans-serif&quot;&gt;&lt;span style=&quot;font-size: 14px; white-space: pre;&quot;&gt;&lt;/span&gt;&lt;/font&gt;&lt;/p&gt;&lt;hr size=&quot;1&quot; style=&quot;border-style:solid;&quot;&gt;&lt;p style=&quot;margin:0px;margin-left:4px;&quot;&gt;&lt;span style=&quot;font-family: sans-serif; font-size: 14px; white-space: pre;&quot;&gt;\+ status(): claimStatus&lt;/span&gt;&lt;/p&gt;" style="verticalAlign=top;align=left;overflow=fill;html=1;whiteSpace=wrap;" vertex="1" parent="1">
          <mxGeometry x="410" y="-90" width="680" height="160" as="geometry" />
        </mxCell>
        <mxCell id="ZKJLrtz3e6IUy4FLzh70-9" value="" style="endArrow=classic;startArrow=sysMLx;endFill=1;startFill=0;html=1;verticalAlign=bottom;labelBackgroundColor=none;strokeWidth=1;startSize=8;rounded=0;exitX=0.5;exitY=1;exitDx=0;exitDy=0;entryX=0.5;entryY=0;entryDx=0;entryDy=0;" edge="1" parent="1" source="ZKJLrtz3e6IUy4FLzh70-7" target="ZKJLrtz3e6IUy4FLzh70-6">
          <mxGeometry width="160" relative="1" as="geometry">
            <mxPoint x="650" y="120" as="sourcePoint" />
            <mxPoint x="830" y="140" as="targetPoint" />
          </mxGeometry>
        </mxCell>
        <mxCell id="ZKJLrtz3e6IUy4FLzh70-10" value="Tracks" style="edgeLabel;html=1;align=center;verticalAlign=middle;resizable=0;points=[];" vertex="1" connectable="0" parent="ZKJLrtz3e6IUy4FLzh70-9">
          <mxGeometry x="-0.3833" y="-2" relative="1" as="geometry">
            <mxPoint as="offset" />
          </mxGeometry>
        </mxCell>
        <mxCell id="ZKJLrtz3e6IUy4FLzh70-11" value="&lt;p style=&quot;margin:0px;margin-top:4px;text-align:center;&quot;&gt;&lt;i&gt;&amp;lt;&amp;lt;Role&lt;/i&gt;&lt;i style=&quot;background-color: initial;&quot;&gt;&amp;gt;&amp;gt;&lt;/i&gt;&lt;/p&gt;&lt;p style=&quot;margin:0px;margin-top:4px;text-align:center;&quot;&gt;&lt;b&gt;AssistanceAgents&lt;/b&gt;&lt;/p&gt;&lt;hr size=&quot;1&quot; style=&quot;border-style:solid;&quot;&gt;&lt;p style=&quot;margin:0px;margin-left:4px;&quot;&gt;&lt;span style=&quot;font-family: sans-serif; font-size: 14px; white-space: pre;&quot;&gt;+ employeeCode: String {Mandatory, ValidString(pattern = &quot;^[A-Z]{2-3}\\d{6}$&quot;), Column(unique = true)}&lt;/span&gt;&lt;/p&gt;&lt;p style=&quot;margin:0px;margin-left:4px;&quot;&gt;&lt;span style=&quot;font-family: sans-serif; font-size: 14px; white-space: pre;&quot;&gt;+ spokenLanguages: String {Mandatory, &lt;/span&gt;&lt;span style=&quot;background-color: initial; font-size: 14px; white-space: pre;&quot;&gt;&lt;font face=&quot;sans-serif&quot;&gt;ValidString(max = 255)&lt;/font&gt;&lt;/span&gt;&lt;span style=&quot;font-family: sans-serif; font-size: 14px; white-space: pre; background-color: initial;&quot;&gt;, Automapped}&lt;/span&gt;&lt;/p&gt;&lt;p style=&quot;margin:0px;margin-left:4px;&quot;&gt;&lt;span style=&quot;font-family: sans-serif; font-size: 14px; white-space: pre; background-color: initial;&quot;&gt;+ dateStarted: Date {Mandatory, ValidMoment(past = true), Automapped)}&lt;/span&gt;&lt;/p&gt;&lt;p style=&quot;margin:0px;margin-left:4px;&quot;&gt;&lt;span style=&quot;font-family: sans-serif; font-size: 14px; white-space: pre;&quot;&gt;+ bio: String {Optional, &lt;/span&gt;&lt;span style=&quot;background-color: initial; font-size: 14px; white-space: pre;&quot;&gt;&lt;font face=&quot;sans-serif&quot;&gt;ValidString(max = 255)&lt;/font&gt;&lt;/span&gt;&lt;span style=&quot;font-family: sans-serif; font-size: 14px; white-space: pre; background-color: initial;&quot;&gt;, Automapped}&lt;/span&gt;&lt;/p&gt;&lt;p style=&quot;margin:0px;margin-left:4px;&quot;&gt;&lt;font face=&quot;sans-serif&quot;&gt;&lt;span style=&quot;font-size: 14px; white-space: pre;&quot;&gt;+ salary: Money {Mandatory, ValidMoney, Automapped}&lt;/span&gt;&lt;/font&gt;&lt;/p&gt;&lt;p style=&quot;margin:0px;margin-left:4px;&quot;&gt;&lt;font face=&quot;sans-serif&quot;&gt;&lt;span style=&quot;font-size: 14px; white-space: pre;&quot;&gt;+ photoLink: String {Mandatory, ValidUrl, Automapped}&lt;/span&gt;&lt;/font&gt;&lt;/p&gt;&lt;hr size=&quot;1&quot; style=&quot;border-style:solid;&quot;&gt;&lt;p style=&quot;margin:0px;margin-left:4px;&quot;&gt;&lt;br&gt;&lt;/p&gt;" style="verticalAlign=top;align=left;overflow=fill;html=1;whiteSpace=wrap;" vertex="1" parent="1">
          <mxGeometry x="410" y="450" width="680" height="150" as="geometry" />
        </mxCell>
        <mxCell id="ZKJLrtz3e6IUy4FLzh70-12" value="*" style="text;html=1;align=center;verticalAlign=middle;resizable=0;points=[];autosize=1;strokeColor=none;fillColor=none;" vertex="1" parent="1">
          <mxGeometry x="750" y="80" width="30" height="30" as="geometry" />
        </mxCell>
        <mxCell id="ZKJLrtz3e6IUy4FLzh70-13" value="1" style="text;html=1;align=center;verticalAlign=middle;resizable=0;points=[];autosize=1;strokeColor=none;fillColor=none;" vertex="1" parent="1">
          <mxGeometry x="745" y="148" width="30" height="30" as="geometry" />
        </mxCell>
        <mxCell id="ZKJLrtz3e6IUy4FLzh70-14" value="" style="endArrow=classic;startArrow=sysMLx;endFill=1;startFill=0;html=1;verticalAlign=bottom;labelBackgroundColor=none;strokeWidth=1;startSize=8;rounded=0;exitX=0.5;exitY=1;exitDx=0;exitDy=0;entryX=0.5;entryY=0;entryDx=0;entryDy=0;" edge="1" parent="1" source="ZKJLrtz3e6IUy4FLzh70-6" target="ZKJLrtz3e6IUy4FLzh70-11">
          <mxGeometry width="160" relative="1" as="geometry">
            <mxPoint x="750" y="340" as="sourcePoint" />
            <mxPoint x="750" y="460" as="targetPoint" />
          </mxGeometry>
        </mxCell>
        <mxCell id="ZKJLrtz3e6IUy4FLzh70-15" value="is made by" style="edgeLabel;html=1;align=center;verticalAlign=middle;resizable=0;points=[];" vertex="1" connectable="0" parent="ZKJLrtz3e6IUy4FLzh70-14">
          <mxGeometry x="-0.3833" y="-2" relative="1" as="geometry">
            <mxPoint as="offset" />
          </mxGeometry>
        </mxCell>
        <mxCell id="ZKJLrtz3e6IUy4FLzh70-16" value="1..*" style="text;html=1;align=center;verticalAlign=middle;resizable=0;points=[];autosize=1;strokeColor=none;fillColor=none;" vertex="1" parent="1">
          <mxGeometry x="750" y="340" width="40" height="30" as="geometry" />
        </mxCell>
        <mxCell id="ZKJLrtz3e6IUy4FLzh70-17" value="1" style="text;html=1;align=center;verticalAlign=middle;resizable=0;points=[];autosize=1;strokeColor=none;fillColor=none;" vertex="1" parent="1">
          <mxGeometry x="755" y="418" width="30" height="30" as="geometry" />
        </mxCell>
        <mxCell id="ZKJLrtz3e6IUy4FLzh70-18" value="&lt;p style=&quot;margin:0px;margin-top:4px;text-align:center;&quot;&gt;&lt;i&gt;&amp;lt;&amp;lt;E&lt;/i&gt;&lt;i style=&quot;background-color: initial;&quot;&gt;ntity&amp;gt;&amp;gt;&lt;/i&gt;&lt;/p&gt;&lt;p style=&quot;margin:0px;margin-top:4px;text-align:center;&quot;&gt;&lt;b&gt;Airline&lt;/b&gt;&lt;/p&gt;&lt;hr size=&quot;1&quot; style=&quot;border-style:solid;&quot;&gt;&lt;p style=&quot;margin:0px;margin-left:4px;&quot;&gt;&lt;br&gt;&lt;/p&gt;" style="verticalAlign=top;align=left;overflow=fill;html=1;whiteSpace=wrap;" vertex="1" parent="1">
          <mxGeometry x="150" y="520" width="100" height="40" as="geometry" />
        </mxCell>
        <mxCell id="ZKJLrtz3e6IUy4FLzh70-20" value="" style="endArrow=classic;startArrow=sysMLx;endFill=1;startFill=0;html=1;verticalAlign=bottom;labelBackgroundColor=none;strokeWidth=1;startSize=8;rounded=0;entryX=1;entryY=0.5;entryDx=0;entryDy=0;exitX=-0.001;exitY=0.613;exitDx=0;exitDy=0;exitPerimeter=0;" edge="1" parent="1" source="ZKJLrtz3e6IUy4FLzh70-11" target="ZKJLrtz3e6IUy4FLzh70-18">
          <mxGeometry width="160" relative="1" as="geometry">
            <mxPoint x="300" y="420" as="sourcePoint" />
            <mxPoint x="310" y="528" as="targetPoint" />
            <Array as="points" />
          </mxGeometry>
        </mxCell>
        <mxCell id="ZKJLrtz3e6IUy4FLzh70-21" value="works in" style="edgeLabel;html=1;align=center;verticalAlign=middle;resizable=0;points=[];" vertex="1" connectable="0" parent="ZKJLrtz3e6IUy4FLzh70-20">
          <mxGeometry x="-0.3833" y="-2" relative="1" as="geometry">
            <mxPoint as="offset" />
          </mxGeometry>
        </mxCell>
        <mxCell id="ZKJLrtz3e6IUy4FLzh70-22" value="1" style="text;html=1;align=center;verticalAlign=middle;resizable=0;points=[];autosize=1;strokeColor=none;fillColor=none;" vertex="1" parent="1">
          <mxGeometry x="255" y="508" width="30" height="30" as="geometry" />
        </mxCell>
        <mxCell id="ZKJLrtz3e6IUy4FLzh70-23" value="1..*" style="text;html=1;align=center;verticalAlign=middle;resizable=0;points=[];autosize=1;strokeColor=none;fillColor=none;" vertex="1" parent="1">
          <mxGeometry x="350" y="508" width="40" height="30" as="geometry" />
        </mxCell>
        <mxCell id="ZKJLrtz3e6IUy4FLzh70-24" value="&lt;p style=&quot;margin:0px;margin-top:4px;text-align:center;&quot;&gt;&lt;i&gt;&amp;lt;&amp;lt;E&lt;/i&gt;&lt;i style=&quot;background-color: initial;&quot;&gt;ntity&amp;gt;&amp;gt;&lt;/i&gt;&lt;/p&gt;&lt;p style=&quot;margin:0px;margin-top:4px;text-align:center;&quot;&gt;&lt;b&gt;Leg&lt;/b&gt;&lt;/p&gt;&lt;hr size=&quot;1&quot; style=&quot;border-style:solid;&quot;&gt;&lt;p style=&quot;margin:0px;margin-left:4px;&quot;&gt;&lt;br&gt;&lt;/p&gt;" style="verticalAlign=top;align=left;overflow=fill;html=1;whiteSpace=wrap;" vertex="1" parent="1">
          <mxGeometry x="150" y="245" width="100" height="40" as="geometry" />
        </mxCell>
        <mxCell id="ZKJLrtz3e6IUy4FLzh70-25" value="" style="endArrow=classic;startArrow=sysMLx;endFill=1;startFill=0;html=1;verticalAlign=bottom;labelBackgroundColor=none;strokeWidth=1;startSize=8;rounded=0;exitX=0;exitY=0.5;exitDx=0;exitDy=0;entryX=1;entryY=0.5;entryDx=0;entryDy=0;" edge="1" parent="1" source="ZKJLrtz3e6IUy4FLzh70-6" target="ZKJLrtz3e6IUy4FLzh70-24">
          <mxGeometry width="160" relative="1" as="geometry">
            <mxPoint x="320" y="245" as="sourcePoint" />
            <mxPoint x="320" y="355" as="targetPoint" />
          </mxGeometry>
        </mxCell>
        <mxCell id="ZKJLrtz3e6IUy4FLzh70-26" value="is about" style="edgeLabel;html=1;align=center;verticalAlign=middle;resizable=0;points=[];" vertex="1" connectable="0" parent="ZKJLrtz3e6IUy4FLzh70-25">
          <mxGeometry x="-0.3833" y="-2" relative="1" as="geometry">
            <mxPoint as="offset" />
          </mxGeometry>
        </mxCell>
        <mxCell id="ZKJLrtz3e6IUy4FLzh70-27" value="*" style="text;html=1;align=center;verticalAlign=middle;resizable=0;points=[];autosize=1;strokeColor=none;fillColor=none;" vertex="1" parent="1">
          <mxGeometry x="375" y="240" width="30" height="30" as="geometry" />
        </mxCell>
        <mxCell id="ZKJLrtz3e6IUy4FLzh70-28" value="1" style="text;html=1;align=center;verticalAlign=middle;resizable=0;points=[];autosize=1;strokeColor=none;fillColor=none;" vertex="1" parent="1">
          <mxGeometry x="255" y="240" width="30" height="30" as="geometry" />
        </mxCell>
        <mxCell id="ZKJLrtz3e6IUy4FLzh70-29" value="&lt;p style=&quot;margin:0px;margin-top:4px;text-align:center;&quot;&gt;&lt;i&gt;&amp;lt;&amp;lt;ENUM&amp;gt;&amp;gt;&lt;/i&gt;&lt;br&gt;&lt;b&gt;ClaimType&lt;/b&gt;&lt;/p&gt;&lt;hr size=&quot;1&quot; style=&quot;border-style:solid;&quot;&gt;&lt;p style=&quot;margin:0px;margin-left:4px;&quot;&gt;FLIGHT_ISSUES&lt;/p&gt;&lt;p style=&quot;margin:0px;margin-left:4px;&quot;&gt;LUGGAGE_ISSUES&lt;/p&gt;&lt;p style=&quot;margin:0px;margin-left:4px;&quot;&gt;SECURITY_INCIDENT&lt;/p&gt;&lt;p style=&quot;margin:0px;margin-left:4px;&quot;&gt;OTHER_ISSUES&lt;/p&gt;" style="verticalAlign=top;align=left;overflow=fill;html=1;whiteSpace=wrap;" vertex="1" parent="1">
          <mxGeometry x="95" y="-320" width="190" height="120" as="geometry" />
        </mxCell>
        <mxCell id="ZKJLrtz3e6IUy4FLzh70-30" value="&lt;p style=&quot;margin:0px;margin-top:4px;text-align:center;&quot;&gt;&lt;i&gt;&amp;lt;&amp;lt;ENUM&amp;gt;&amp;gt;&lt;/i&gt;&lt;br&gt;&lt;b&gt;Status&lt;/b&gt;&lt;/p&gt;&lt;hr size=&quot;1&quot; style=&quot;border-style:solid;&quot;&gt;&lt;p style=&quot;margin:0px;margin-left:4px;&quot;&gt;PENDING&amp;nbsp;&lt;/p&gt;&lt;p style=&quot;margin:0px;margin-left:4px;&quot;&gt;ACCEPTED&lt;/p&gt;&lt;p style=&quot;margin:0px;margin-left:4px;&quot;&gt;REJECTED&lt;/p&gt;" style="verticalAlign=top;align=left;overflow=fill;html=1;whiteSpace=wrap;" vertex="1" parent="1">
          <mxGeometry x="95" y="-160" width="190" height="100" as="geometry" />
        </mxCell>
      </root>
    </mxGraphModel>
  </diagram>
</mxfile>
